<?xml version="1.0" encoding="utf-8"?>
<!-- Generator: Adobe Illustrator 15.1.0, SVG Export Plug-In . SVG Version: 6.00 Build 0)  -->
<!DOCTYPE svg PUBLIC "-//W3C//DTD SVG 1.1//EN" "http://www.w3.org/Graphics/SVG/1.1/DTD/svg11.dtd">
<svg version="1.1" id="Capa_1" xmlns="http://www.w3.org/2000/svg" xmlns:xlink="http://www.w3.org/1999/xlink" x="0px" y="0px"
	 width="315px" height="81px" viewBox="0 0 315 81" enable-background="new 0 0 315 81" xml:space="preserve">
<g>
	<g>
		<g>
			
				<radialGradient id="SVGID_2_" cx="-1977.7844" cy="3416.541" r="41.1294" gradientTransform="matrix(1 0 0 -1 2026.8098 3456.5195)" gradientUnits="userSpaceOnUse">
				<stop  offset="0" style="stop-color:#FFFFFF"/>
				<stop  offset="0.4746" style="stop-color:#FDFDFD"/>
				<stop  offset="0.6456" style="stop-color:#F6F6F6"/>
				<stop  offset="0.7675" style="stop-color:#EBEBEB"/>
				<stop  offset="0.866" style="stop-color:#DADADA"/>
				<stop  offset="0.9494" style="stop-color:#C4C4C4"/>
				<stop  offset="1" style="stop-color:#B2B2B2"/>
			</radialGradient>
			<path id="SVGID_1_" fill="url(#SVGID_2_)" d="M3.622,39.979c0,20.079,20.328,36.357,45.401,36.357
				c25.076,0,45.405-16.278,45.405-36.357c0-20.08-20.329-36.357-45.405-36.357C23.949,3.621,3.622,19.899,3.622,39.979"/>
		</g>
	</g>
	<path fill="#58595B" d="M56.176,65.109c-0.947-1.931-3.044-2.979-6.03-2.979c-0.704,0-1.309,0.059-1.714,0.112
		c5.898-15.094,4.069-25.795,4.05-25.901c-0.77-6.075-3.519-10.278-6.606-13.149c4.398,3.925,6,8.07,6.023,8.134
		C58.649,46.702,56.861,61.135,56.176,65.109 M27.852,53.598c-2.287,0-3.881-0.318-3.896-0.321
		C13.889,50.656,8.535,43.891,9.65,35.184c1.14-8.9,9.368-18.105,21.167-18.105c0.988,0,1.989,0.067,2.995,0.199
		c-0.781-0.065-1.538-0.098-2.268-0.098c-5.085,0-9.174,1.553-12.156,4.615c-5.46,5.608-5.287,14.473-5.285,14.562
		c0.606,14.682,11.281,16.267,15.842,16.267c1.329,0,2.178-0.131,2.213-0.137c4.183-0.431,7.127-2.174,9.253-4.409
		C37.385,52.783,31.467,53.598,27.852,53.598"/>
	<path fill="#58595B" d="M22.173,19.208c-1.099,0.656-2.101,1.447-3.002,2.375c-5.548,5.699-5.38,14.414-5.37,14.79
		c0.617,14.941,11.496,16.555,16.145,16.555c1.266,0,2.108-0.118,2.243-0.137c0.335-0.035,0.664-0.079,0.983-0.129
		c-1.967,0.495-3.839,0.633-5.32,0.633c-2.136,0-3.659-0.281-3.823-0.313c-9.906-2.586-15.17-9.224-14.076-17.759
		C10.769,28.838,15.288,22.297,22.173,19.208 M51.757,31.762c6.163,14.261,4.978,27.661,4.252,32.473
		c-1.131-1.568-3.146-2.41-5.863-2.41c-0.469,0-0.894,0.026-1.249,0.06c5.655-14.763,3.998-24.952,3.887-25.582
		C52.573,34.653,52.22,33.143,51.757,31.762 M30.817,16.774c-21.294,0-32.353,30.181-6.923,36.801c0,0,1.608,0.327,3.958,0.327
		c4.853,0,12.868-1.396,16.416-9.958c0,0,1.264-2.592,1.409-3.894c-1.409,3.894-4.501,11.203-13.566,12.137
		c0,0-0.844,0.132-2.165,0.132c-4.592,0-14.944-1.604-15.538-15.971c0,0-0.506-18.863,17.137-18.863c1.127,0,2.329,0.076,3.608,0.24
		c0,0,15.05,3.038,17.029,18.669c0,0,1.945,10.78-4.23,26.233c0,0,0.94-0.194,2.194-0.194c2.188,0,5.33,0.589,6.119,3.818
		c0,0,3.946-16.748-4.081-35.033c0,0-3.745-10.022-16.098-13.842C34.274,16.966,32.512,16.774,30.817,16.774"/>
	<path fill="#00ABEB" d="M45.68,65.377c-0.541-4.338-1.799-19.993,5.541-35.228c0.009-0.019,0.226-0.465,0.688-1.19
		c-1.417,2.447-2.326,5.341-2.276,8.729c-0.142,0.684-1.956,10.305,3.753,24.906c-0.405-0.054-1.009-0.112-1.712-0.112
		C48.727,62.482,46.646,63.5,45.68,65.377 M74.026,54.013c-3.067,0-7.046-0.83-10.816-4.089c2.528,1.715,5.916,2.897,10.445,2.897
		c0.414,0,0.836-0.01,1.271-0.03c0.277-0.019,6.696-0.496,10.325-4.844c1.901-2.279,2.666-5.199,2.271-8.681
		c0.001-0.071-0.285-10.144-14.532-10.144c-1.639,0-3.419,0.135-5.309,0.4c2.68-1.483,7.602-4.65,7.915-8.052
		c0.003-0.095,0.042-1.919-1.241-3.24c-0.84-0.865-2.038-1.302-3.559-1.302c-1.229,0-2.681,0.289-4.318,0.861
		c-0.066,0.021-2.88,0.943-6.191,2.985c1.58-1.006,3.397-1.957,5.471-2.765c0.043-0.02,2.898-1.287,5.746-1.287
		c1.778,0,3.171,0.49,4.135,1.454c0.094,0.073,1.405,1.043,1.345,2.802c-0.074,2.151-2.205,4.594-6.162,7.065l-1.977,1.235
		l2.228-0.687c0.028-0.008,2.817-0.854,6.243-0.854c3.443,0,8.123,0.875,10.89,5.04l0.021,0.035
		c0.132,0.198,3.202,4.91,1.912,10.263c-0.862,3.58-3.478,6.62-7.771,9.034C82.338,52.128,78.727,54.013,74.026,54.013"/>
	<path fill="#00ABEB" d="M73.775,17.38c0.647,0.228,1.198,0.566,1.646,1.016l0.036,0.036l0.038,0.027
		c0.05,0.037,1.241,0.929,1.182,2.522c-0.042,1.14-0.745,2.862-3.52,5.063c1.452-1.36,2.591-2.921,2.74-4.543l0.001-0.019v-0.019
		c0.002-0.083,0.043-2.029-1.329-3.442C74.332,17.775,74.066,17.56,73.775,17.38 M77.313,28.045c3.362,0,7.926,0.848,10.619,4.879
		l0.039,0.059c0.128,0.193,3.129,4.798,1.869,10.024c-0.841,3.494-3.406,6.469-7.61,8.833c-0.036,0.019-3.588,1.868-8.205,1.868
		c-2.544,0-4.9-0.534-7.059-1.596c1.899,0.637,4.113,1.013,6.688,1.013c0.42,0,0.853-0.01,1.296-0.03
		c0.277-0.019,6.821-0.505,10.533-4.952c1.953-2.34,2.741-5.33,2.342-8.889c-0.031-0.708-0.75-10.433-14.839-10.435
		c-0.571,0-1.162,0.017-1.767,0.049C71.635,28.749,74.201,28.045,77.313,28.045 M49.498,34.974
		c-0.126,0.878-0.184,1.773-0.173,2.682c-0.208,0.985-1.913,10.21,3.595,24.58c-0.354-0.033-0.781-0.058-1.248-0.058
		c-2.658,0-4.644,0.804-5.789,2.306C45.387,59.814,44.761,47.679,49.498,34.974 M71.501,16.422c-2.949,0-5.856,1.308-5.856,1.308
		c-10.898,4.243-14.699,12.288-14.699,12.288c-8.729,18.125-5.396,36.587-5.396,36.587c0.79-3.23,3.936-3.818,6.123-3.818
		c1.253,0,2.191,0.193,2.191,0.193c-6.175-15.453-3.929-25.263-3.929-25.263C49.701,23.446,66.576,18.08,66.576,18.08
		c1.726-0.603,3.108-0.846,4.218-0.846c4.622,0.001,4.498,4.212,4.498,4.212c-0.411,4.469-9.436,8.679-9.436,8.679
		c2.707-0.484,5.068-0.695,7.132-0.695c14.111,0.001,14.23,9.874,14.23,9.874c1.39,12.268-12.31,13.187-12.31,13.187
		c-0.428,0.021-0.846,0.029-1.256,0.029c-11.017,0-15.215-6.962-16.802-12.054c0.091,0.937,1.408,3.894,1.408,3.894
		c4.769,7.976,10.874,9.959,15.766,9.959c4.838,0,8.489-1.939,8.489-1.939c13.953-7.845,5.963-19.73,5.962-19.732
		c-2.767-4.199-7.373-5.209-11.164-5.209c-3.516,0-6.333,0.869-6.333,0.869c10.316-6.443,4.871-10.341,4.871-10.341
		C74.687,16.8,73.088,16.422,71.501,16.422"/>
	<g>
		<path fill="#58595B" d="M157.223,44.131h-9.902c-0.02-0.021-0.029,0.021-0.029,0.123c0,0.041,0.076,0.268,0.233,0.679
			c0.156,0.41,0.256,0.646,0.298,0.707c1.023,1.438,2.268,2.157,3.729,2.157c0.46,0,1.014-0.122,1.662-0.367
			c0.645-0.245,1.105-0.52,1.377-0.824l0.877,0.876c-1.065,1.086-2.371,1.629-3.917,1.629c-1.545,0-2.872-0.553-3.98-1.66
			c-1.106-1.106-1.658-2.434-1.658-3.979s0.552-2.872,1.658-3.979c1.108-1.106,2.436-1.661,3.98-1.661c2.005,0,3.572,0.84,4.7,2.52
			c0.646,0.986,0.972,1.848,0.972,2.583L157.223,44.131L157.223,44.131z M155.844,42.814c-0.188-1.056-0.686-1.93-1.489-2.625
			c-0.805-0.693-1.738-1.04-2.804-1.04c-1.064,0-1.994,0.347-2.788,1.04c-0.795,0.695-1.285,1.569-1.472,2.625H155.844z"/>
		<path fill="#58595B" d="M167.688,47.484c-1.063,1.085-2.371,1.629-3.917,1.629c-1.42,0-2.715-0.522-3.885-1.565
			c-1.17-1.045-1.755-2.269-1.755-3.667V27.805h1.314v10.027h4.324v1.316h-4.324v4.759c0,0.602,0.261,1.245,0.78,1.928
			c0.521,0.686,1.063,1.183,1.624,1.494c0.563,0.312,1.207,0.467,1.936,0.467c0.457,0,1.01-0.122,1.655-0.367
			c0.645-0.244,1.104-0.52,1.372-0.824L167.688,47.484z"/>
		<path fill="#58595B" d="M178.906,49.113h-1.315v-2.006c-1.194,1.337-2.642,2.006-4.338,2.006c-1.552,0-2.88-0.554-3.992-1.661
			c-1.109-1.106-1.664-2.434-1.664-3.979s0.555-2.873,1.664-3.979c1.112-1.106,2.44-1.661,3.992-1.661
			c1.761,0,3.205,0.668,4.338,2.005c0.041-0.042,0.041-0.71,0-2.005h1.315V49.113z M177.59,43.473c0-1.203-0.421-2.224-1.266-3.063
			c-0.843-0.84-1.865-1.26-3.074-1.26c-1.187,0-2.206,0.425-3.061,1.275c-0.853,0.851-1.28,1.867-1.28,3.049
			c0,1.182,0.429,2.198,1.28,3.049c0.854,0.85,1.874,1.274,3.061,1.274c1.188,0,2.207-0.424,3.061-1.274
			C177.163,45.671,177.59,44.655,177.59,43.473"/>
		<path fill="#58595B" d="M229.125,50.057h-1.316v-6.028c0-0.583-0.265-1.243-0.793-1.983c-0.529-0.739-1.064-1.234-1.604-1.483
			c-0.685-0.313-1.338-0.469-1.959-0.469c-0.456,0-1.101,0.156-1.929,0.469c-0.561,0.208-1.101,0.687-1.619,1.437
			c-0.519,0.749-0.776,1.416-0.776,1.998v6.06h-1.316V28.75h1.316v12.032c1.193-1.337,2.631-2.006,4.307-2.006
			c2.012,0,3.583,0.835,4.714,2.507c0.649,0.981,0.977,1.838,0.977,2.569L229.125,50.057L229.125,50.057z"/>
		<path fill="#58595B" d="M241.657,50.057h-1.314v-2.005c-1.195,1.337-2.643,2.005-4.338,2.005c-1.552,0-2.882-0.553-3.993-1.66
			c-1.109-1.107-1.666-2.435-1.666-3.979c0-1.545,0.557-2.873,1.666-3.98c1.111-1.107,2.441-1.661,3.993-1.661
			c1.76,0,3.204,0.668,4.338,2.005c0.042-0.042,0.042-0.71,0-2.005h1.314V50.057z M240.343,44.418c0-1.204-0.423-2.224-1.267-3.064
			c-0.843-0.841-1.865-1.26-3.074-1.26c-1.187,0-2.206,0.425-3.062,1.273c-0.853,0.852-1.278,1.867-1.278,3.05
			c0,1.182,0.427,2.198,1.278,3.048c0.854,0.85,1.875,1.274,3.062,1.274c1.186,0,2.207-0.425,3.061-1.274
			C239.914,46.616,240.343,45.6,240.343,44.418"/>
		<path fill="#58595B" d="M252.438,40.344c-0.104,0.146-0.396,0.459-0.874,0.939c-0.271-0.306-0.728-0.581-1.374-0.825
			c-0.646-0.244-1.197-0.366-1.655-0.366c-0.457,0-1.103,0.155-1.935,0.468c-0.563,0.208-1.104,0.687-1.623,1.438
			c-0.521,0.749-0.781,1.416-0.781,1.999v6.06h-1.313v-11.28h1.313v2.005c1.195-1.337,2.634-2.005,4.312-2.005
			C250.075,38.777,251.388,39.299,252.438,40.344"/>
		<path fill="#58595B" d="M273.807,50.057h-1.315v-6.028c0-0.562-0.267-1.224-0.796-1.983c-0.532-0.76-1.057-1.254-1.578-1.483
			c-0.706-0.313-1.362-0.469-1.967-0.469c-0.479,0-1.134,0.156-1.967,0.469c-0.542,0.208-1.072,0.687-1.593,1.437
			c-0.521,0.749-0.78,1.416-0.78,1.998v6.06h-1.315V44.03c0-0.583-0.265-1.243-0.794-1.983c-0.528-0.739-1.063-1.234-1.602-1.483
			c-0.686-0.313-1.338-0.469-1.96-0.469c-0.456,0-1.101,0.156-1.929,0.469c-0.562,0.208-1.101,0.687-1.617,1.437
			c-0.521,0.749-0.778,1.416-0.778,1.998v6.06h-1.316v-11.28h1.316v2.006c1.192-1.337,2.626-2.006,4.3-2.006
			c2.112,0,3.775,0.972,4.99,2.914c0.355-0.417,0.722-0.835,1.099-1.253c0.502-0.543,0.909-0.877,1.224-1.003
			c1.066-0.438,1.978-0.658,2.729-0.658c2.029,0,3.6,0.835,4.708,2.507c0.628,0.981,0.941,1.838,0.941,2.569V50.057z"/>
		<path fill="#58595B" d="M286.371,50.057h-1.314v-2.005c-1.195,1.337-2.642,2.005-4.339,2.005c-1.552,0-2.881-0.553-3.993-1.66
			c-1.109-1.107-1.664-2.435-1.664-3.979c0-1.545,0.555-2.873,1.664-3.98c1.112-1.107,2.441-1.661,3.993-1.661
			c1.761,0,3.204,0.668,4.339,2.005c0.039-0.042,0.039-0.71,0-2.005h1.314V50.057z M285.057,44.418c0-1.204-0.423-2.224-1.267-3.064
			c-0.844-0.841-1.866-1.26-3.075-1.26c-1.187,0-2.205,0.425-3.061,1.273c-0.853,0.852-1.279,1.867-1.279,3.05
			c0,1.182,0.428,2.198,1.279,3.048c0.854,0.85,1.874,1.274,3.061,1.274c1.188,0,2.206-0.425,3.061-1.274
			C284.627,46.616,285.057,45.6,285.057,44.418"/>
		<path fill="#58595B" d="M230.951,58.196v-5.574h2.313c0.521,0,0.92,0.026,1.195,0.08c0.385,0.074,0.713,0.207,0.984,0.399
			c0.354,0.249,0.619,0.566,0.795,0.953c0.176,0.386,0.264,0.829,0.264,1.324c0,0.424-0.06,0.799-0.18,1.126
			c-0.117,0.327-0.271,0.597-0.458,0.812c-0.186,0.214-0.391,0.383-0.61,0.506s-0.488,0.216-0.802,0.279s-0.674,0.095-1.079,0.095
			H230.951z M231.842,57.539h1.433c0.443,0,0.791-0.035,1.042-0.103c0.252-0.068,0.453-0.164,0.604-0.289
			c0.211-0.175,0.375-0.41,0.492-0.705c0.116-0.295,0.176-0.653,0.176-1.074c0-0.583-0.115-1.032-0.347-1.345
			c-0.229-0.313-0.511-0.523-0.841-0.629c-0.237-0.076-0.62-0.113-1.148-0.113h-1.41L231.842,57.539L231.842,57.539z"/>
		<path fill="#58595B" d="M237.741,58.196v-5.574h2.978c0.599,0,1.054,0.05,1.365,0.149c0.311,0.101,0.561,0.277,0.746,0.531
			c0.188,0.253,0.279,0.534,0.279,0.84c0,0.396-0.153,0.729-0.464,1c-0.307,0.271-0.783,0.443-1.428,0.517
			c0.233,0.094,0.413,0.188,0.535,0.277c0.26,0.198,0.506,0.446,0.737,0.742l1.168,1.517h-1.116l-0.89-1.16
			c-0.261-0.335-0.475-0.591-0.643-0.769c-0.168-0.177-0.318-0.301-0.451-0.372s-0.268-0.121-0.404-0.148
			c-0.102-0.018-0.267-0.027-0.496-0.027h-1.028v2.476L237.741,58.196L237.741,58.196z M238.631,55.083h1.91
			c0.404,0,0.723-0.035,0.951-0.105c0.229-0.069,0.403-0.181,0.521-0.334c0.12-0.153,0.18-0.319,0.18-0.5
			c0-0.264-0.116-0.48-0.347-0.65c-0.23-0.17-0.595-0.255-1.092-0.255h-2.125L238.631,55.083L238.631,55.083z"/>
		<path fill="#58595B" d="M244.232,55.481c0-0.925,0.299-1.649,0.898-2.173c0.599-0.523,1.371-0.786,2.316-0.786
			c0.62,0,1.18,0.123,1.678,0.37c0.498,0.246,0.877,0.588,1.139,1.028c0.262,0.439,0.391,0.938,0.391,1.496
			c0,0.566-0.137,1.071-0.412,1.518c-0.272,0.446-0.663,0.783-1.168,1.013c-0.504,0.23-1.048,0.344-1.631,0.344
			c-0.632,0-1.196-0.126-1.693-0.38c-0.498-0.254-0.875-0.6-1.133-1.038C244.361,56.434,244.232,55.97,244.232,55.481
			 M245.148,55.493c0,0.671,0.218,1.201,0.653,1.587c0.435,0.387,0.979,0.58,1.638,0.58c0.669,0,1.219-0.194,1.65-0.585
			c0.431-0.39,0.647-0.943,0.647-1.662c0-0.454-0.092-0.85-0.275-1.188c-0.186-0.339-0.456-0.601-0.812-0.787
			c-0.355-0.187-0.756-0.28-1.198-0.28c-0.629,0-1.17,0.179-1.624,0.538C245.376,54.055,245.148,54.653,245.148,55.493"/>
		<path fill="#58595B" d="M254.943,56.01v-0.654l2.845-0.004v2.068c-0.437,0.289-0.888,0.506-1.352,0.652
			c-0.465,0.146-0.939,0.218-1.429,0.218c-0.66,0-1.26-0.117-1.799-0.352c-0.539-0.234-0.946-0.574-1.222-1.017
			c-0.274-0.443-0.412-0.939-0.412-1.487c0-0.543,0.138-1.049,0.41-1.519c0.273-0.471,0.666-0.82,1.181-1.048
			c0.512-0.228,1.104-0.342,1.771-0.342c0.485,0,0.925,0.065,1.317,0.196s0.698,0.312,0.922,0.545
			c0.223,0.233,0.393,0.538,0.509,0.913l-0.802,0.183c-0.101-0.285-0.227-0.507-0.375-0.669c-0.15-0.163-0.363-0.292-0.642-0.39
			c-0.278-0.097-0.588-0.146-0.926-0.146c-0.406,0-0.758,0.051-1.055,0.153c-0.296,0.103-0.535,0.238-0.717,0.405
			c-0.183,0.167-0.322,0.352-0.425,0.552c-0.17,0.345-0.256,0.718-0.256,1.122c0,0.497,0.104,0.912,0.31,1.247
			c0.207,0.335,0.508,0.583,0.899,0.746c0.396,0.162,0.813,0.244,1.257,0.244c0.385,0,0.76-0.062,1.127-0.184
			c0.366-0.124,0.645-0.254,0.834-0.394V56.01H254.943z"/>
		<path fill="#58595B" d="M263.504,52.622h0.889v3.22c0,0.561-0.076,1.005-0.229,1.335c-0.153,0.33-0.43,0.597-0.827,0.804
			c-0.398,0.207-0.922,0.31-1.569,0.31c-0.629,0-1.144-0.09-1.543-0.27c-0.4-0.18-0.687-0.44-0.857-0.781
			c-0.17-0.341-0.256-0.807-0.256-1.396v-3.22H260v3.216c0,0.483,0.054,0.841,0.162,1.069c0.107,0.229,0.295,0.407,0.559,0.531
			c0.265,0.125,0.588,0.187,0.969,0.187c0.654,0,1.12-0.123,1.397-0.369c0.277-0.246,0.417-0.719,0.417-1.418V52.622z"/>
		<polygon fill="#58595B" points="265.891,58.196 265.891,52.622 270.746,52.622 270.746,53.279 266.779,53.279 266.779,54.987 
			270.495,54.987 270.495,55.641 266.779,55.641 266.779,57.538 270.902,57.538 270.902,58.196 		"/>
		<path fill="#58595B" d="M272.145,58.196v-5.574h2.978c0.6,0,1.055,0.05,1.364,0.149c0.313,0.101,0.562,0.277,0.747,0.531
			c0.187,0.254,0.28,0.534,0.28,0.84c0,0.396-0.154,0.729-0.464,1c-0.309,0.271-0.784,0.443-1.429,0.517
			c0.234,0.094,0.413,0.188,0.535,0.277c0.26,0.198,0.506,0.446,0.737,0.742l1.168,1.517h-1.117l-0.889-1.16
			c-0.26-0.335-0.474-0.591-0.642-0.769c-0.168-0.177-0.318-0.301-0.451-0.372s-0.27-0.121-0.405-0.148
			c-0.102-0.018-0.266-0.027-0.495-0.027h-1.03v2.476L272.145,58.196L272.145,58.196z M273.032,55.083h1.91
			c0.406,0,0.725-0.035,0.953-0.105c0.229-0.069,0.402-0.181,0.521-0.334c0.118-0.153,0.18-0.319,0.18-0.5
			c0-0.264-0.116-0.48-0.347-0.65c-0.23-0.17-0.596-0.255-1.094-0.255h-2.125L273.032,55.083L273.032,55.083z"/>
		<rect x="279.057" y="52.622" fill="#58595B" width="0.889" height="5.574"/>
		<path fill="#58595B" d="M280.774,58.196l2.579-5.574h0.957l2.748,5.574h-1.012l-0.783-1.688h-2.809l-0.736,1.688H280.774z
			 M282.712,55.907h2.275l-0.699-1.543c-0.215-0.47-0.372-0.854-0.478-1.156c-0.085,0.357-0.206,0.712-0.362,1.064L282.712,55.907z"
			/>
		<path fill="#00ABEB" d="M180.703,59.333c-0.55-3.319-1.758-14.204,3.321-25.775c0.017-0.042,0.63-1.627,2.167-3.612
			c-1.329,1.946-2.36,4.388-2.748,7.439c-0.013,0.067-1.415,8.28,3.085,19.871c-0.31-0.037-0.73-0.072-1.213-0.072
			C183.082,57.184,181.484,57.938,180.703,59.333 M202.496,50.61c-2.228,0-5.591-0.402-8.425-2.422
			c1.371,0.871,3.047,1.494,5.111,1.707c0.012,0.002,0.67,0.104,1.699,0.104c3.535,0,11.807-1.228,12.274-12.598
			c0.009-0.285,0.137-6.934-4.093-11.275c-1.827-1.878-4.191-3.023-7.049-3.42c8.079,0.863,13.62,7.431,14.435,13.793
			c0.854,6.672-3.252,11.856-10.981,13.869C205.467,50.368,204.246,50.61,202.496,50.61"/>
		<path fill="#00ABEB" d="M208.539,25.212c4.282,2.591,7.058,7.006,7.61,11.325c0.832,6.5-3.183,11.559-10.74,13.532
			c-0.141,0.027-1.297,0.237-2.913,0.237c-0.275,0-0.567-0.007-0.875-0.021c3.92-0.182,11.393-1.971,11.842-12.881
			c0.007-0.286,0.137-7.057-4.18-11.49C209.045,25.668,208.796,25.434,208.539,25.212 M183.359,36.012
			c-0.085,0.427-0.156,0.867-0.215,1.32c-0.091,0.521-1.34,8.304,2.924,19.576c-0.227-0.017-0.479-0.028-0.752-0.028
			c-1.99,0-3.505,0.576-4.43,1.654C180.366,54.857,179.691,45.872,183.359,36.012 M200.211,22.307c-1.308,0-2.664,0.147-4.062,0.463
			c-9.52,2.943-12.403,10.667-12.403,10.667c-6.185,14.089-3.146,26.994-3.146,26.994c0.608-2.489,3.031-2.942,4.716-2.942
			c0.965,0,1.688,0.149,1.688,0.149c-4.755-11.907-3.259-20.213-3.259-20.213c1.526-12.045,13.122-14.386,13.122-14.386
			c0.988-0.126,1.912-0.186,2.781-0.186c13.592,0.001,13.203,14.536,13.203,14.536c-0.455,11.071-8.432,12.306-11.971,12.306
			c-1.019,0-1.668-0.102-1.668-0.102c-6.984-0.719-9.369-6.352-10.455-9.353c0.114,1.004,1.086,3.001,1.086,3.001
			c2.734,6.599,8.911,7.673,12.649,7.673c1.812,0,3.05-0.252,3.05-0.252C225.138,45.562,216.618,22.304,200.211,22.307"/>
		<path fill="#00ABEB" d="M110.455,59.533c-0.405-3.429-1.164-14.243,3.502-25.161c-0.382,1.232-0.593,2.577-0.572,4.041
			c-0.121,0.597-1.478,7.964,2.854,19.116c-0.309-0.037-0.729-0.073-1.212-0.073C112.831,57.456,111.25,58.185,110.455,59.533
			 M132.254,50.931c-2.834,0-5.367-0.846-7.576-2.526c1.856,1.054,4.239,1.747,7.289,1.747c0.321,0,0.646-0.007,0.981-0.023
			c0.217-0.014,5.192-0.384,8.008-3.757c1.478-1.771,2.071-4.038,1.765-6.741c0.001-0.048-0.219-7.878-11.269-7.878
			c-0.895,0-1.845,0.052-2.84,0.155l1.384-0.425c0.021-0.007,2.161-0.656,4.789-0.656c2.644,0,6.237,0.672,8.351,3.878
			c0.102,0.153,2.45,3.742,1.466,7.846c-0.658,2.743-2.662,5.073-5.956,6.926C138.625,49.487,135.856,50.931,132.254,50.931
			 M127.716,32.012c2.123-1.212,5.584-3.558,5.816-6.08c0.002-0.078,0.032-1.512-0.977-2.551c-0.657-0.676-1.59-1.021-2.773-1.024
			c0.176-0.013,0.351-0.019,0.525-0.019c1.352,0,2.408,0.37,3.138,1.101c0.08,0.062,1.063,0.792,1.017,2.109
			c-0.04,1.139-0.892,2.998-4.715,5.386l-1.652,1.033C127.969,31.98,127.842,31.996,127.716,32.012"/>
		<path fill="#00ABEB" d="M133.041,23.479c0.066,0.055,0.129,0.114,0.19,0.175l0.036,0.036l0.036,0.026
			c0.037,0.026,0.898,0.678,0.854,1.831c-0.02,0.518-0.227,1.201-0.862,2.033c0.296-0.525,0.489-1.067,0.541-1.618l0.002-0.019
			v-0.019C133.839,25.863,133.865,24.564,133.041,23.479 M134.787,31.13c3.735,0,6.459,1.259,8.098,3.745
			c0.022,0.036,2.376,3.628,1.422,7.604c-0.637,2.657-2.592,4.923-5.796,6.724c-0.027,0.016-2.738,1.423-6.256,1.423
			c-1.094,0-2.143-0.129-3.145-0.388c0.882,0.141,1.832,0.217,2.856,0.217c0.326,0,0.661-0.008,1.009-0.024
			c0.215-0.014,5.316-0.393,8.214-3.865c1.53-1.833,2.147-4.17,1.836-6.95c-0.03-0.632-0.646-8.158-11.552-8.168
			C132.323,31.289,133.492,31.13,134.787,31.13 M113.102,37.444c-0.017,0.308-0.025,0.62-0.021,0.938
			c-0.176,0.844-1.436,7.883,2.698,18.798c-0.227-0.017-0.479-0.027-0.753-0.027c-1.937,0-3.422,0.545-4.354,1.568
			C110.317,55.06,109.981,46.522,113.102,37.444 M130.308,22.034c-2.272,0-4.512,1.007-4.512,1.007
			c-8.398,3.271-11.327,9.469-11.327,9.469c-6.729,13.967-4.159,28.193-4.159,28.193c0.608-2.489,3.032-2.942,4.716-2.942
			c0.966,0,1.69,0.147,1.69,0.147c-4.759-11.907-3.026-19.466-3.026-19.466c-0.179-10.997,12.823-15.131,12.823-15.131
			c1.329-0.464,2.395-0.652,3.25-0.652c3.56,0,3.466,3.246,3.466,3.246c-0.316,3.444-7.271,6.688-7.271,6.688
			c2.084-0.373,3.904-0.536,5.495-0.536c10.876,0,10.966,7.608,10.966,7.608c1.071,9.453-9.485,10.16-9.485,10.16
			c-0.331,0.017-0.652,0.023-0.968,0.023c-8.488,0-11.725-5.364-12.947-9.287c0.071,0.722,1.086,2.999,1.086,2.999
			c3.675,6.148,8.378,7.675,12.148,7.675c3.727,0,6.541-1.494,6.541-1.494c10.752-6.046,4.595-15.203,4.594-15.204
			c-2.133-3.237-5.681-4.015-8.604-4.015c-2.709,0-4.879,0.669-4.879,0.669c7.949-4.964,3.754-7.967,3.754-7.967
			C132.764,22.325,131.531,22.034,130.308,22.034"/>
		<path fill="#58595B" d="M302.344,45.523c0.125,1.24-0.238,2.318-1.087,3.232c-0.85,0.915-1.897,1.372-3.145,1.372
			c-0.498,0-1.027-0.113-1.59-0.338c-0.561-0.226-1.012-0.518-1.354-0.877c0.063-0.108,0.28-0.342,0.654-0.701
			c0.233,0.258,0.58,0.478,1.04,0.661c0.459,0.183,0.876,0.273,1.25,0.273c0.812,0,1.513-0.254,2.104-0.764
			c0.592-0.51,0.966-1.158,1.121-1.947h-7.361l-0.07-0.093c-0.124-1.246,0.234-2.329,1.076-3.249
			c0.841-0.919,1.885-1.379,3.131-1.379c1.169,0,2.144,0.39,2.922,1.168c-0.078,0.109-0.296,0.343-0.653,0.702
			c-0.203-0.228-0.546-0.433-1.029-0.614c-0.481-0.184-0.896-0.274-1.238-0.274c-0.811,0-1.508,0.261-2.092,0.783
			s-0.955,1.181-1.109,1.975L302.344,45.523z"/>
		<path fill="#58595B" d="M311.365,50.127h-0.981v-1.496c-0.892,0.998-1.969,1.496-3.234,1.496c-1.158,0-2.15-0.412-2.979-1.238
			s-1.242-1.815-1.242-2.968s0.414-2.142,1.242-2.968c0.828-0.826,1.819-1.239,2.979-1.239c1.313,0,2.391,0.499,3.234,1.496
			c0.031-0.03,0.031-0.529,0-1.496h0.981V50.127z M310.383,45.921c0-0.897-0.313-1.659-0.942-2.285
			c-0.63-0.627-1.394-0.94-2.294-0.94c-0.885,0-1.646,0.317-2.283,0.951s-0.955,1.392-0.955,2.274c0,0.882,0.318,1.64,0.955,2.274
			c0.639,0.634,1.398,0.951,2.283,0.951s1.646-0.316,2.281-0.951C310.064,47.561,310.383,46.803,310.383,45.921"/>
	</g>
</g>
</svg>
